<?xml version="1.0" encoding="utf-8"?>
<!-- Generator: Adobe Illustrator 21.0.2, SVG Export Plug-In . SVG Version: 6.00 Build 0)  -->
<svg version="1.1" id="图层_1" xmlns="http://www.w3.org/2000/svg" xmlns:xlink="http://www.w3.org/1999/xlink" x="0px" y="0px"
	 viewBox="0 0 20 20" style="enable-background:new 0 0 20 20;" xml:space="preserve">
<style type="text/css">
	.st0{fill:#FFFFFF;}
</style>
<path class="st0" d="M9,0C4,0,0,4,0,9c0,0,0,0,0,0c0,5,4,9,9,9s9-4,9-9C18,4,13.9,0,9,0C9,0,9,0,9,0L9,0z M9,16.5
	c-4.2,0-7.5-3.4-7.5-7.5S4.8,1.4,9,1.4c4.2,0.1,7.5,3.5,7.4,7.6C16.4,13.2,13.1,16.5,9,16.5z M19.7,18.2l-2-1.9
	c-0.4-0.4-1.1-0.4-1.6,0c-0.4,0.4-0.4,1.1,0,1.5c0,0,0,0,0,0l2,1.9c0.4,0.4,1.1,0.4,1.6,0C20.1,19.3,20.1,18.6,19.7,18.2
	C19.7,18.2,19.7,18.2,19.7,18.2z"/>
</svg>
